<svg class="hidden">
  <symbol fill="none" xmlns="http://www.w3.org/2000/svg" viewBox="0 0 18 18" id="dandruff">
    <path fill-rule="evenodd" clip-rule="evenodd" d="M2.5 8.16667C2.5 5.03705 5.03705 2.5 8.16667 2.5C11.2963 2.5 13.8333 5.03705 13.8333 8.16667C13.8333 9.68897 13.2331 11.0711 12.2563 12.0892C12.2256 12.1134 12.1961 12.1396 12.1678 12.1679C12.1395 12.1962 12.1133 12.2257 12.0891 12.2564C11.071 13.2331 9.68894 13.8333 8.16667 13.8333C5.03705 13.8333 2.5 11.2963 2.5 8.16667ZM12.8346 14.2489C11.5418 15.2426 9.92324 15.8333 8.16667 15.8333C3.93248 15.8333 0.5 12.4008 0.5 8.16667C0.5 3.93248 3.93248 0.5 8.16667 0.5C12.4008 0.5 15.8333 3.93248 15.8333 8.16667C15.8333 9.92328 15.2426 11.5419 14.2489 12.8347L17.207 15.7929C17.5976 16.1834 17.5976 16.8166 17.207 17.2071C16.8165 17.5976 16.1833 17.5976 15.7928 17.2071L12.8346 14.2489Z" fill="#12f7d6"></path>
  </symbol>
  <symbol fill="none" xmlns="http://www.w3.org/2000/svg" viewBox="0 0 22 18" id="discord">
    <path d="M8.49219 0.679688L7.90625 0.75C7.90625 0.75 5.27832 1.03711 3.35938 2.57812H3.33594L3.3125 2.60156C2.88184 2.99707 2.69434 3.4834 2.39844 4.19531C2.10254 4.90723 1.78613 5.81543 1.50781 6.82031C0.951172 8.83301 0.5 11.2705 0.5 13.5V13.6875L0.59375 13.875C1.28809 15.0938 2.52148 15.8701 3.66406 16.4062C4.80664 16.9424 5.79395 17.2266 6.47656 17.25L6.92188 17.2734L7.15625 16.875L7.97656 15.4219C8.84668 15.6182 9.84863 15.75 11 15.75C12.1514 15.75 13.1533 15.6182 14.0234 15.4219L14.8438 16.875L15.0781 17.2734L15.5234 17.25C16.2061 17.2266 17.1934 16.9424 18.3359 16.4062C19.4785 15.8701 20.7119 15.0938 21.4062 13.875L21.5 13.6875V13.5C21.5 11.2705 21.0488 8.83301 20.4922 6.82031C20.2139 5.81543 19.8975 4.90723 19.6016 4.19531C19.3057 3.4834 19.1182 2.99707 18.6875 2.60156L18.6641 2.57812H18.6406C16.7217 1.03711 14.0938 0.75 14.0938 0.75L13.5078 0.679688L13.2969 1.21875C13.2969 1.21875 13.0801 1.7666 12.9453 2.39062C12.0957 2.27637 11.4014 2.25 11 2.25C10.5986 2.25 9.9043 2.27637 9.05469 2.39062C8.91992 1.7666 8.70312 1.21875 8.70312 1.21875L8.49219 0.679688ZM7.46094 2.39062C7.49316 2.49609 7.52539 2.58691 7.55469 2.67188C6.58496 2.91211 5.55078 3.27832 4.60156 3.86719L5.39844 5.13281C7.34375 3.92578 10.1387 3.75 11 3.75C11.8613 3.75 14.6562 3.92578 16.6016 5.13281L17.3984 3.86719C16.4492 3.27832 15.415 2.91211 14.4453 2.67188C14.4746 2.58691 14.5068 2.49609 14.5391 2.39062C15.2393 2.53125 16.5752 2.85352 17.6797 3.72656C17.6738 3.72949 17.9609 4.16309 18.2188 4.78125C18.4824 5.41699 18.7754 6.26367 19.0391 7.21875C19.5459 9.0498 19.9443 11.2793 19.9766 13.2422C19.5049 13.9629 18.6289 14.6133 17.7031 15.0469C16.8945 15.4248 16.2559 15.5625 15.875 15.6328L15.5 15C15.7227 14.918 15.9424 14.8271 16.1328 14.7422C17.2871 14.2354 17.9141 13.6875 17.9141 13.6875L16.9297 12.5625C16.9297 12.5625 16.5078 12.9492 15.5234 13.3828C14.5391 13.8164 13.0361 14.25 11 14.25C8.96387 14.25 7.46094 13.8164 6.47656 13.3828C5.49219 12.9492 5.07031 12.5625 5.07031 12.5625L4.08594 13.6875C4.08594 13.6875 4.71289 14.2354 5.86719 14.7422C6.05762 14.8271 6.27734 14.918 6.5 15L6.125 15.6328C5.74414 15.5625 5.10547 15.4248 4.29688 15.0469C3.37109 14.6133 2.49512 13.9629 2.02344 13.2422C2.05566 11.2793 2.4541 9.0498 2.96094 7.21875C3.22461 6.26367 3.51758 5.41699 3.78125 4.78125C4.03906 4.16309 4.32617 3.72949 4.32031 3.72656C5.4248 2.85352 6.76074 2.53125 7.46094 2.39062ZM8.375 7.5C7.79492 7.5 7.28223 7.83105 6.96875 8.25C6.65527 8.66895 6.5 9.18457 6.5 9.75C6.5 10.3154 6.65527 10.8311 6.96875 11.25C7.28223 11.6689 7.79492 12 8.375 12C8.95508 12 9.46777 11.6689 9.78125 11.25C10.0947 10.8311 10.25 10.3154 10.25 9.75C10.25 9.18457 10.0947 8.66895 9.78125 8.25C9.46777 7.83105 8.95508 7.5 8.375 7.5ZM13.625 7.5C13.0449 7.5 12.5322 7.83105 12.2188 8.25C11.9053 8.66895 11.75 9.18457 11.75 9.75C11.75 10.3154 11.9053 10.8311 12.2188 11.25C12.5322 11.6689 13.0449 12 13.625 12C14.2051 12 14.7178 11.6689 15.0312 11.25C15.3447 10.8311 15.5 10.3154 15.5 9.75C15.5 9.18457 15.3447 8.66895 15.0312 8.25C14.7178 7.83105 14.2051 7.5 13.625 7.5ZM8.375 9C8.41602 9 8.46875 9.01465 8.5625 9.14062C8.65625 9.2666 8.75 9.48633 8.75 9.75C8.75 10.0137 8.65625 10.2334 8.5625 10.3594C8.46875 10.4854 8.41602 10.5 8.375 10.5C8.33398 10.5 8.28125 10.4854 8.1875 10.3594C8.09375 10.2334 8 10.0137 8 9.75C8 9.48633 8.09375 9.2666 8.1875 9.14062C8.28125 9.01465 8.33398 9 8.375 9ZM13.625 9C13.666 9 13.7188 9.01465 13.8125 9.14062C13.9062 9.2666 14 9.48633 14 9.75C14 10.0137 13.9062 10.2334 13.8125 10.3594C13.7188 10.4854 13.666 10.5 13.625 10.5C13.584 10.5 13.5312 10.4854 13.4375 10.3594C13.3438 10.2334 13.25 10.0137 13.25 9.75C13.25 9.48633 13.3438 9.2666 13.4375 9.14062C13.5312 9.01465 13.584 9 13.625 9Z" fill="#12f7d6"></path>
  </symbol>
  <symbol fill="none" xmlns="http://www.w3.org/2000/svg" viewBox="0 0 20 20" id="github">
    <path d="M10 0.246582C7.62547 0.24668 5.32846 1.0917 3.51996 2.63043C1.71146 4.16916 0.509498 6.3012 0.12913 8.64506C-0.251238 10.9889 0.214815 13.3917 1.4439 15.4233C2.67298 17.455 4.58488 18.9831 6.83752 19.7341C7.33752 19.8216 7.52502 19.5216 7.52502 19.2591C7.52502 19.0216 7.51251 18.2341 7.51251 17.3966C5 17.8591 4.35 16.7841 4.15 16.2216C3.92807 15.6745 3.57627 15.1897 3.125 14.8091C2.775 14.6216 2.275 14.1591 3.11249 14.1466C3.43227 14.1813 3.73898 14.2926 4.00663 14.471C4.27427 14.6494 4.49496 14.8897 4.65 15.1716C4.78677 15.4173 4.97068 15.6336 5.19119 15.8081C5.4117 15.9826 5.66447 16.1118 5.93503 16.1885C6.20559 16.2651 6.48861 16.2876 6.76788 16.2547C7.04714 16.2218 7.31717 16.134 7.56248 15.9966C7.60577 15.4882 7.83234 15.0129 8.2 14.6591C5.975 14.4091 3.65 13.5466 3.65 9.72161C3.63594 8.72776 4.00268 7.76619 4.675 7.03411C4.36928 6.17033 4.40505 5.2224 4.775 4.38411C4.775 4.38411 5.61247 4.1216 7.525 5.40911C9.16128 4.95909 10.8887 4.95909 12.525 5.40911C14.4375 4.10911 15.275 4.38411 15.275 4.38411C15.645 5.22238 15.6808 6.17034 15.375 7.03411C16.0493 7.76494 16.4164 8.72734 16.4 9.72161C16.4 13.5591 14.0625 14.4091 11.8375 14.6591C12.0761 14.901 12.2599 15.1914 12.3764 15.5106C12.4929 15.8298 12.5393 16.1704 12.5125 16.5091C12.5125 17.8466 12.5 18.9216 12.5 19.2591C12.5 19.5216 12.6875 19.8341 13.1875 19.7341C15.4362 18.977 17.3426 17.4453 18.5664 15.4126C19.7903 13.3799 20.2519 10.9784 19.8689 8.63682C19.4859 6.29523 18.2832 4.16595 16.4755 2.62909C14.6678 1.09223 12.3727 0.247817 10 0.246582Z" fill="#12f7d6"></path>
  </symbol>
  <symbol fill="none" xmlns="http://www.w3.org/2000/svg" viewBox="0 0 22 22" id="instagram">
    <path fill-rule="evenodd" clip-rule="evenodd" d="M8.74037 6.51861C9.67386 6.03424 10.7363 5.85655 11.7766 6.01081C12.8378 6.16817 13.8202 6.66264 14.5788 7.4212C15.3373 8.17975 15.8318 9.16216 15.9891 10.2233C16.1434 11.2636 15.9657 12.3261 15.4813 13.2596C14.997 14.1931 14.2306 14.9501 13.2912 15.4229C12.3518 15.8957 11.2872 16.0603 10.2489 15.8932C9.21054 15.7261 8.25134 15.2359 7.50768 14.4923C6.76403 13.7486 6.2738 12.7894 6.10672 11.7511C5.93964 10.7128 6.10422 9.64818 6.57704 8.70878C7.04987 7.76938 7.80687 7.00299 8.74037 6.51861ZM11.4833 7.98918C10.8591 7.89662 10.2216 8.00324 9.66151 8.29386C9.10141 8.58449 8.64721 9.04432 8.36351 9.60796C8.07982 10.1716 7.98107 10.8103 8.08132 11.4333C8.18157 12.0563 8.47571 12.6319 8.9219 13.0781C9.36809 13.5242 9.94361 13.8184 10.5666 13.9186C11.1896 14.0189 11.8283 13.9201 12.392 13.6364C12.9556 13.3527 13.4155 12.8985 13.7061 12.3384C13.9967 11.7783 14.1033 11.1409 14.0108 10.5167C13.9164 9.87999 13.6197 9.29054 13.1645 8.83541C12.7094 8.38028 12.12 8.08359 11.4833 7.98918Z" fill="#12f7d6"></path>
    <path d="M16.5 4.5C15.9477 4.5 15.5 4.94772 15.5 5.5C15.5 6.05228 15.9477 6.5 16.5 6.5H16.51C17.0623 6.5 17.51 6.05228 17.51 5.5C17.51 4.94772 17.0623 4.5 16.51 4.5H16.5Z" fill="#12f7d6"></path>
    <path fill-rule="evenodd" clip-rule="evenodd" d="M0 6C0 2.68629 2.68629 0 6 0H16C19.3137 0 22 2.68629 22 6V16C22 19.3137 19.3137 22 16 22H6C2.68629 22 0 19.3137 0 16V6ZM6 2C3.79086 2 2 3.79086 2 6V16C2 18.2091 3.79086 20 6 20H16C18.2091 20 20 18.2091 20 16V6C20 3.79086 18.2091 2 16 2H6Z" fill="#12f7d6"></path>
  </symbol>
  <symbol width="14" height="12" viewBox="0 0 14 12" fill="none" xmlns="http://www.w3.org/2000/svg" id="case">
    <path fill-rule="evenodd" clip-rule="evenodd" d="M5.83334 0.166687C5.36921 0.166687 4.9241 0.351061 4.59591 0.67925C4.26772 1.00744 4.08334 1.45256 4.08334 1.91669V2.50002H2.33334C1.36685 2.50002 0.583344 3.28352 0.583344 4.25002V10.0834C0.583344 11.0499 1.36685 11.8334 2.33334 11.8334H11.6667C12.6332 11.8334 13.4167 11.0499 13.4167 10.0834V4.25002C13.4167 3.28352 12.6332 2.50002 11.6667 2.50002H9.91668V1.91669C9.91668 1.45256 9.7323 1.00744 9.40411 0.67925C9.07593 0.351061 8.63081 0.166687 8.16668 0.166687H5.83334ZM8.75001 2.50002V1.91669C8.75001 1.76198 8.68855 1.6136 8.57916 1.50421C8.46976 1.39481 8.32139 1.33335 8.16668 1.33335H5.83334C5.67863 1.33335 5.53026 1.39481 5.42086 1.50421C5.31147 1.6136 5.25001 1.76198 5.25001 1.91669V2.50002H8.75001ZM5.25001 3.66669H8.75001V10.6667H5.25001V3.66669ZM4.08334 3.66669H2.33334C2.01118 3.66669 1.75001 3.92785 1.75001 4.25002V10.0834C1.75001 10.4055 2.01118 10.6667 2.33334 10.6667H4.08334V3.66669ZM9.91668 10.6667V3.66669H11.6667C11.9888 3.66669 12.25 3.92785 12.25 4.25002V10.0834C12.25 10.4055 11.9888 10.6667 11.6667 10.6667H9.91668Z" fill="#12F7D6"/>
  </symbol>
  <symbol width="14" height="16" viewBox="0 0 14 12" fill="none" xmlns="http://www.w3.org/2000/svg" id="map">
    <path fill-rule="evenodd" clip-rule="evenodd" d="M5.99999 3.5C4.71133 3.5 3.66666 4.54467 3.66666 5.83333C3.66666 7.122 4.71133 8.16667 5.99999 8.16667C7.28865 8.16667 8.33332 7.122 8.33332 5.83333C8.33332 4.54467 7.28865 3.5 5.99999 3.5ZM4.83332 5.83333C4.83332 5.189 5.35566 4.66667 5.99999 4.66667C6.64432 4.66667 7.16666 5.189 7.16666 5.83333C7.16666 6.47767 6.64432 7 5.99999 7C5.35566 7 4.83332 6.47767 4.83332 5.83333Z" fill="#12F7D6"/>
    <path fill-rule="evenodd" clip-rule="evenodd" d="M5.6761 13.9018C5.67627 13.9019 5.67641 13.902 5.99999 13.4167L5.6761 13.9018C5.87204 14.0324 6.12762 14.0327 6.32356 13.902L5.99999 13.4167C6.32356 13.902 6.3234 13.9021 6.32356 13.902L6.32555 13.9007L6.32944 13.8981L6.3428 13.8891C6.35416 13.8813 6.37036 13.8703 6.39108 13.8559C6.43251 13.8272 6.49205 13.7854 6.56711 13.7312C6.71717 13.6228 6.92961 13.4646 7.18368 13.2623C7.69088 12.8584 8.36868 12.275 9.04846 11.5574C10.3842 10.1475 11.8333 8.10947 11.8333 5.83333C11.8333 4.28624 11.2187 2.80251 10.1248 1.70854C9.03082 0.614581 7.54709 0 5.99999 0C4.45289 0 2.96916 0.614581 1.8752 1.70854C0.781238 2.80251 0.166656 4.28624 0.166656 5.83333C0.166656 8.10947 1.61581 10.1475 2.95152 11.5574C3.6313 12.275 4.3091 12.8584 4.8163 13.2623C5.07037 13.4646 5.28281 13.6228 5.43287 13.7312C5.50793 13.7854 5.56747 13.8272 5.6089 13.8559C5.62962 13.8703 5.64582 13.8813 5.65718 13.8891L5.67054 13.8981L5.67443 13.9007L5.6761 13.9018ZM2.70016 2.5335C3.57533 1.65833 4.76231 1.16667 5.99999 1.16667C7.23767 1.16667 8.42465 1.65833 9.29982 2.5335C10.175 3.40867 10.6667 4.59566 10.6667 5.83333C10.6667 7.64053 9.49081 9.39415 8.20152 10.7551C7.5688 11.4229 6.9341 11.9697 6.45693 12.3497C6.27934 12.4911 6.12423 12.6089 5.99999 12.7007C5.87575 12.6089 5.72064 12.4911 5.54305 12.3497C5.06588 11.9697 4.43118 11.4229 3.79846 10.7551C2.50917 9.39415 1.33332 7.64053 1.33332 5.83333C1.33332 4.59566 1.82499 3.40867 2.70016 2.5335Z" fill="#12F7D6"/>
  </symbol>
  <symbol width="14" height="12" viewBox="0 0 14 12" fill="none" xmlns="http://www.w3.org/2000/svg" id="mail">
    <path fill-rule="evenodd" clip-rule="evenodd" d="M0.583361 2.48988C0.583267 2.49564 0.583257 2.50139 0.583333 2.50715V9.5C0.583333 10.4638 1.3695 11.25 2.33333 11.25H11.6667C12.6305 11.25 13.4167 10.4638 13.4167 9.5V2.50721C13.4167 2.50141 13.4167 2.4956 13.4166 2.4898C13.4111 1.53063 12.6271 0.75 11.6667 0.75H2.33333C1.37287 0.75 0.588839 1.53067 0.583361 2.48988ZM1.81217 2.2398C1.90864 2.04904 2.10702 1.91667 2.33333 1.91667H11.6667C11.893 1.91667 12.0914 2.04904 12.1878 2.2398L7 5.87128L1.81217 2.2398ZM12.25 3.62038V9.5C12.25 9.8195 11.9862 10.0833 11.6667 10.0833H2.33333C2.01383 10.0833 1.75 9.8195 1.75 9.5V3.62038L6.66548 7.06122C6.86633 7.20182 7.13367 7.20182 7.33452 7.06122L12.25 3.62038Z" fill="#12F7D6"/>
  </symbol>
  <symbol width="20" height="20" viewBox="0 0 20 20" fill="none" xmlns="http://www.w3.org/2000/svg" id="download">
    <path d="M11 1C11 0.447715 10.5523 0 10 0C9.44771 0 9 0.447715 9 1V10.5858L5.70711 7.29289C5.31658 6.90237 4.68342 6.90237 4.29289 7.29289C3.90237 7.68342 3.90237 8.31658 4.29289 8.70711L9.29289 13.7071C9.68342 14.0976 10.3166 14.0976 10.7071 13.7071L15.7071 8.70711C16.0976 8.31658 16.0976 7.68342 15.7071 7.29289C15.3166 6.90237 14.6834 6.90237 14.2929 7.29289L11 10.5858V1Z" fill="#292F36"/>
    <path d="M1 12C1.55228 12 2 12.4477 2 13V17C2 17.2652 2.10536 17.5196 2.29289 17.7071C2.48043 17.8946 2.73478 18 3 18H17C17.2652 18 17.5196 17.8946 17.7071 17.7071C17.8946 17.5196 18 17.2652 18 17V13C18 12.4477 18.4477 12 19 12C19.5523 12 20 12.4477 20 13V17C20 17.7957 19.6839 18.5587 19.1213 19.1213C18.5587 19.6839 17.7957 20 17 20H3C2.20435 20 1.44129 19.6839 0.87868 19.1213C0.31607 18.5587 0 17.7957 0 17V13C0 12.4477 0.447715 12 1 12Z" fill="#292F36"/>
  </symbol>
</svg>